Coordinates
version=1
nRows=17
nColumns=36
inDegrees=yes

Units are S.I. units (second, meters, Newtons, ...)
If the header above contains a line with 'inDegrees', this indicates whether rotational values are in degrees (yes) or radians (no).

endheader
time	pelvis_tilt	pelvis_list	pelvis_rotation	pelvis_tx	pelvis_ty	pelvis_tz	hip_flexion_r	hip_adduction_r	hip_rotation_r	knee_angle_r	knee_angle_r_beta	ankle_angle_r	subtalar_angle_r	mtp_angle_r	hip_flexion_l	hip_adduction_l	hip_rotation_l	knee_angle_l	knee_angle_l_beta	ankle_angle_l	subtalar_angle_l	mtp_angle_l	lumbar_extension	lumbar_bending	lumbar_rotation	arm_flex_r	arm_add_r	arm_rot_r	elbow_flex_r	pro_sup_r	arm_flex_l	arm_add_l	arm_rot_l	elbow_flex_l	pro_sup_l
      4.38333330	    -32.96252061	      2.40618744	     -2.47121369	      0.65535179	      0.71268596	      0.00496726	     82.67246079	    -13.35646672	     -2.11215138	     68.28111761	      1.19173032	     23.05528994	      6.63539803	     -7.49999987	     80.52467377	    -13.38244593	      0.79038035	     67.59745871	      1.17979822	     29.19661191	      3.61714217	     -7.49999987	    -15.27544578	     -2.65302142	      6.79533066	     62.40010839	     -3.20308490	     68.94066142	    124.99000718	    107.76986968	     77.66073579	      0.44355999	     70.13465062	    123.39192306	    108.27344771
      4.40000000	    -32.51793404	      2.43061635	     -2.53954309	      0.65635335	      0.73206103	      0.00572727	     80.46743325	    -12.96968252	     -2.20192467	     65.99098389	      1.15175995	     22.64072961	      6.56343939	     -7.49999987	     78.24098892	    -13.43713785	      0.33059809	     65.25387819	      1.13889502	     28.63585604	      3.83241062	     -7.49999987	    -14.67246596	     -2.76308286	      6.76726450	     61.92379776	     -3.52593193	     69.87661562	    125.16378763	    108.30290197	     76.20112213	      0.05502963	     69.90241803	    122.28290451	    108.70829805
      4.41666670	    -32.12946012	      2.49971470	     -2.60736744	      0.65866839	      0.75120734	      0.00532509	     78.15069327	    -12.71053395	     -2.45766143	     63.34469515	      1.10557349	     21.94639614	      6.52310237	     -7.49999987	     75.82810215	    -13.34180886	     -0.12294002	     62.54677965	      1.09164724	     27.58959911	      3.91082082	     -7.49999987	    -14.28861966	     -2.91560660	      6.98702761	     61.26782260	     -3.95843295	     69.71158342	    124.62589815	    108.59434735	     74.97905715	      0.10281761	     70.18842615	    121.58184356	    109.17225921
      4.43333330	    -31.71808437	      2.57112354	     -2.72806909	      0.65854742	      0.75802181	      0.00615235	     75.87215357	    -12.40129452	     -2.79163741	     60.61268207	      1.05789087	     21.10476434	      6.79680668	     -7.49999987	     73.45005608	    -13.23758428	     -0.56278759	     59.84384190	      1.04447208	     26.49504914	      4.01998166	     -7.49999987	    -13.09128923	     -3.11067533	      7.02070581	     61.00677780	     -3.05105929	     71.00016673	    125.73380325	    108.71018575	     73.88237444	      0.82158249	     69.67746981	    121.51452000	    109.14342431
      4.45000000	    -30.87935964	      2.68702928	     -2.90060402	      0.66595016	      0.76657585	      0.00184866	     73.28961819	    -12.13839560	     -2.96090246	     57.99758727	      1.01224886	     20.36210600	      6.62553962	     -7.49999987	     70.78145666	    -12.94311455	     -0.80552187	     57.31350489	      1.00030937	     25.71485080	      3.71442096	     -7.49999987	    -12.61273478	     -3.13976388	      7.11626881	     61.56589248	     -2.96598543	     71.60680325	    127.33166193	    108.98687585	     72.71299487	      1.22985049	     67.78480835	    121.55092833	    109.18686247
      4.46666670	    -30.07425827	      2.86015953	     -3.08442957	      0.67410352	      0.78205572	      0.00584328	     70.33889947	    -11.90581935	     -3.22063291	     54.92539507	      0.95862899	     19.66705606	      6.78034568	     -7.49999987	     67.69134420	    -12.63009680	     -1.13803462	     54.25844292	      0.94698848	     24.72922539	      3.54959039	     -7.49999987	    -11.82255895	     -3.28492715	      6.96497526	     60.61376854	     -1.85508032	     72.25353411	    127.12325984	    109.63117437	     71.44410564	      0.81138988	     66.95698431	    121.84437497	    109.67039386
      4.48333330	    -28.98760752	      3.16698590	     -3.40740179	      0.68177161	      0.80272446	      0.00153420	     66.74366586	    -11.76688785	     -3.54453278	     51.15982990	      0.89290748	     18.43806967	      6.80004298	     -7.49999987	     63.71463127	    -12.14755836	     -1.61839730	     50.36002619	      0.87894827	     23.26176412	      3.34086423	     -7.49999987	    -11.85498573	     -3.48494247	      7.30268818	     59.38440938	     -2.52707070	     71.00373716	    126.94264387	    110.19859044	     69.37173551	      0.94625086	     66.33443269	    120.92565078	    110.37417947
      4.50000000	    -28.59542417	      3.37445693	     -3.67001043	      0.68174229	      0.81202541	      0.00214329	     64.19538627	    -11.59357178	     -3.93857915	     47.83251704	      0.83483491	     17.05858235	      7.08345076	     -7.49999987	     60.90461268	    -11.85040225	     -2.14815412	     46.94187097	      0.81929021	     21.96034167	      3.76444609	     -7.49999987	    -10.60347316	     -3.67048928	      7.22680172	     57.71528828	     -2.22408391	     71.93054540	    127.39378024	    110.28855937	     68.10852199	      0.91475557	     66.46570019	    121.10722948	    110.36696473
      4.51666670	    -27.32122662	      3.61972705	     -3.97537103	      0.68237253	      0.82024708	      0.00236608	     60.89029696	    -11.36978702	     -3.97520188	     44.69892804	      0.78014347	     15.64788408	      6.55845254	     -7.49999987	     57.23547366	    -11.40919172	     -2.51287579	     43.37211964	      0.75698629	     20.62880303	      3.27330078	     -7.49999987	    -10.67982259	     -3.87874403	      6.93392879	     58.40041431	     -1.55907310	     71.86592444	    128.25745805	    110.57271567	     68.11081861	      1.15424584	     66.07485180	    121.13099162	    110.43892550
      4.53333330	    -26.79384799	      3.73926746	     -4.14475777	      0.68998090	      0.82822349	      0.00576020	     58.40017063	    -11.19082446	     -4.26822759	     41.81554039	      0.72981886	     14.56239125	      6.76198817	     -7.49999987	     54.40580343	    -11.07155848	     -2.83311442	     39.86428030	      0.69576295	     19.35939119	      3.37848750	     -7.49999987	     -9.51012908	     -3.96355950	      6.87702317	     57.50638318	     -1.10019054	     71.20153014	    128.48999476	    110.59804432	     67.45886444	      0.80308594	     66.07026749	    121.44626097	    110.44904654
      4.55000000	    -25.48770262	      3.85468376	     -4.42413824	      0.69769400	      0.84033316	      0.00821047	     54.98866216	    -10.91187623	     -4.35747815	     38.70433303	      0.67551805	     13.47338281	      6.66705596	     -7.49999987	     50.48853223	    -10.63448366	     -3.01656568	     35.97713014	      0.62791938	     17.63218901	      2.98980160	     -7.49999987	     -9.29549089	     -4.18638539	      6.78252969	     56.51980922	     -0.66310076	     69.80790840	    127.98527437	    110.63113624	     66.89988422	      0.63533177	     65.58129299	    121.75800263	    110.48909636
      4.56666670	    -24.25732482	      3.97312286	     -4.69272139	      0.70448389	      0.85240012	      0.00552324	     51.82499071	    -10.74256580	     -4.42712269	     35.86518677	      0.62596560	     12.43045382	      6.52441580	     -7.49999987	     46.59866803	    -10.20728914	     -3.37669627	     32.11272730	      0.56047282	     15.99396122	      2.89214901	     -7.49999987	     -9.06527362	     -4.27319466	      6.69663962	     55.46681951	     -0.30333383	     69.38584000	    127.87042625	    110.56189268	     65.58473394	      0.57481539	     65.83014147	    121.85167180	    110.49094593
      4.58333330	    -22.45433754	      3.84264397	     -5.11156614	      0.71881500	      0.86869357	      0.00455146	     47.42783608	    -10.30890940	     -4.59724962	     32.11497698	      0.56051209	     11.22432464	      6.39365873	     -7.49999987	     41.69586007	     -9.83986336	     -3.46205627	     27.62596965	      0.48216413	     13.89029406	      2.59586672	     -7.49999987	     -9.53035576	     -4.20981983	      6.83036516	     53.58837412	     -0.42943308	     69.58259532	    127.52837824	    109.65002395	     63.85087815	      0.78349168	     66.57579817	    121.64494717	    109.91043360
      4.60000000	    -20.80936357	      3.40699572	     -5.53185450	      0.73153185	      0.87564847	      0.00450290	     42.78033887	     -9.50982023	     -4.69182565	     27.80064817	      0.48521284	      9.77029085	      5.80002428	     -7.49999987	     36.76081506	     -9.70642404	     -3.27546903	     22.94446047	      0.40045638	     11.74789237	      2.33549186	     -7.49999987	     -9.23707024	     -3.76981958	      6.83836225	     51.57488757	     -0.62506035	     69.22330392	    127.31587416	    109.94097608	     61.93437220	      1.38040676	     66.53420401	    121.25432343	    110.41248069
      4.61666670	    -19.02920356	      2.85494245	     -5.90817672	      0.73789744	      0.88233563	      0.00644794	     38.25034130	     -8.59521873	     -4.22699959	     23.85992260	      0.41643421	      8.17545480	      4.80332727	     -7.49999987	     31.89933704	     -9.74058664	     -3.03436437	     18.63649573	      0.32526821	     10.19148541	      2.20768000	     -7.49999987	     -9.11069402	     -3.22144501	      6.62472548	     49.61247473	     -0.18465182	     68.22088497	    127.13762541	    110.51370755	     60.27638383	      1.66724384	     67.04828066	    121.33556210	    111.56570946
      4.63333330	    -17.35256524	      2.25102407	     -6.25401380	      0.74405039	      0.88864657	      0.00965322	     34.03962926	     -7.62058435	     -3.54271506	     20.31584065	      0.35457831	      6.55060397	      3.24913460	     -7.49999987	     27.64539105	     -9.96402793	     -2.63066133	     15.26326911	      0.26639430	      9.27294923	      2.17918259	     -7.49999987	     -9.04291113	     -2.77185276	      6.23773486	     47.64135130	     -0.00309337	     67.07078928	    126.44657964	    110.20951873	     58.86716428	      1.14424384	     67.78704350	    121.48664627	    111.67946378
      4.65000000	    -15.76139386	      1.64966873	     -6.46470001	      0.75065052	      0.89448783	      0.01126820	     30.25271895	     -6.75772420	     -2.68384174	     17.40262856	      0.30373317	      5.04201083	      1.36455146	     -7.49999987	     23.85356361	    -10.24752429	     -2.11028044	     12.52798386	      0.21865457	      8.85559705	      2.16425659	     -7.49999987	     -8.78732715	     -2.25525417	      5.84280310	     45.35913634	      0.37292169	     66.00304878	    125.77317839	    109.18139207	     57.73167580	      0.83123548	     68.42743480	    121.85289606	    111.59287449
